<mxfile host="65bd71144e">
    <diagram id="FGBjcDeOTr281Ab5OIB1" name="Page-1">
        <mxGraphModel dx="991" dy="488" grid="1" gridSize="10" guides="1" tooltips="1" connect="1" arrows="1" fold="1" page="1" pageScale="1" pageWidth="850" pageHeight="1100" math="0" shadow="0">
            <root>
                <mxCell id="0"/>
                <mxCell id="1" parent="0"/>
                <mxCell id="6" style="edgeStyle=orthogonalEdgeStyle;rounded=0;orthogonalLoop=1;jettySize=auto;html=1;exitX=0.5;exitY=1;exitDx=0;exitDy=0;entryX=0.5;entryY=0;entryDx=0;entryDy=0;strokeWidth=3;endArrow=block;endFill=1;startArrow=block;startFill=1;strokeColor=#E83F81;fontSize=16;" edge="1" parent="1" source="2" target="5">
                    <mxGeometry relative="1" as="geometry"/>
                </mxCell>
                <mxCell id="2" value="&lt;span style=&quot;font-size: 16px&quot;&gt;&amp;nbsp; 0x1234567890ABCDEF1234567890ABCDEF12345678 90ABCDEF1234567890ABCDEF&lt;/span&gt;" style="rounded=1;whiteSpace=wrap;html=1;align=left;fontColor=#000000;fontSize=16;arcSize=50;" vertex="1" parent="1">
                    <mxGeometry x="80" y="200" width="680" height="30" as="geometry"/>
                </mxCell>
                <mxCell id="3" value="32-byte Substrate Address" style="text;html=1;strokeColor=none;fillColor=none;align=left;verticalAlign=middle;whiteSpace=wrap;rounded=0;fontStyle=1;fontColor=#000000;fontSize=16;" vertex="1" parent="1">
                    <mxGeometry x="80" y="170" width="260" height="20" as="geometry"/>
                </mxCell>
                <mxCell id="4" value="20-byte EVM Address" style="text;html=1;strokeColor=none;fillColor=none;align=left;verticalAlign=middle;whiteSpace=wrap;rounded=0;fontStyle=1;fontColor=#000000;fontSize=16;" vertex="1" parent="1">
                    <mxGeometry x="80" y="290" width="200" height="20" as="geometry"/>
                </mxCell>
                <mxCell id="5" value="&lt;div style=&quot;font-size: 16px;&quot;&gt;&lt;span style=&quot;font-size: 16px;&quot;&gt;&amp;nbsp; 0x1234567890ABCDEF1234567890ABCDEF12345678&lt;/span&gt;&lt;/div&gt;" style="rounded=1;whiteSpace=wrap;html=1;align=left;fontColor=#000000;fontSize=16;arcSize=50;" vertex="1" parent="1">
                    <mxGeometry x="80" y="320" width="680" height="30" as="geometry"/>
                </mxCell>
                <mxCell id="7" value="TRUNCATE&amp;nbsp;&lt;br&gt;&lt;div style=&quot;text-align: left&quot;&gt;&lt;span&gt;ADDRESS&lt;/span&gt;&lt;/div&gt;" style="text;html=1;strokeColor=none;fillColor=none;align=center;verticalAlign=middle;whiteSpace=wrap;rounded=0;fontColor=#E83F81;fontSize=16;" vertex="1" parent="1">
                    <mxGeometry x="490" y="260" width="110" height="20" as="geometry"/>
                </mxCell>
                <mxCell id="9" value="" style="endArrow=none;html=1;fontColor=#E83F81;strokeColor=#E83F81;strokeWidth=1;dashed=1;fontSize=16;" edge="1" parent="1">
                    <mxGeometry width="50" height="50" relative="1" as="geometry">
                        <mxPoint x="489" y="349" as="sourcePoint"/>
                        <mxPoint x="489" y="199" as="targetPoint"/>
                    </mxGeometry>
                </mxCell>
            </root>
        </mxGraphModel>
    </diagram>
</mxfile>